M48
;Layer_Color=9474304
;FILE_FORMAT=2:5
INCH,LZ
;TYPE=PLATED
T1F00S00C0.03200
T2F00S00C0.03400
T3F00S00C0.04016
T4F00S00C0.04500
%
T01
X02159Y01907
X02259
X02359
X02459
Y02307
X02359
X02259
X02159
T02
X01623Y02107
X01897Y02345
X02029Y02344
Y0254085
X01897Y0254185
X02537Y01776
Y01576
X0142615Y02107
T03
X01618Y0197
X01939Y02076
Y02176
X02259Y02412
X02359
X02705Y02154
Y02054
X02714Y01673
Y01573
X02359Y01781
X02259
X01518Y0197
T04
X01546Y02339
Y02439
Y02539
M30
