G04*
G04 #@! TF.GenerationSoftware,Altium Limited,Altium Designer,21.0.8 (223)*
G04*
G04 Layer_Physical_Order=2*
G04 Layer_Color=16711680*
%FSLAX25Y25*%
%MOIN*%
G70*
G04*
G04 #@! TF.SameCoordinates,E7718C12-BC85-45C8-BBF6-CE0E0CA18016*
G04*
G04*
G04 #@! TF.FilePolarity,Positive*
G04*
G01*
G75*
%ADD10C,0.00600*%
%ADD12C,0.00787*%
%ADD14C,0.00300*%
%ADD15C,0.00000*%
%ADD16C,0.00100*%
%ADD17C,0.05400*%
%ADD18C,0.06181*%
%ADD19R,0.06181X0.06181*%
%ADD20C,0.05200*%
%ADD21R,0.06181X0.06181*%
%ADD22R,0.05400X0.05400*%
%ADD23C,0.04724*%
%ADD24C,0.06500*%
%ADD25R,0.06500X0.06500*%
%ADD26R,0.07100X0.03200*%
%ADD27C,0.03150*%
G36*
X181000Y251700D02*
X175900Y246600D01*
X172600D01*
X168200Y251800D01*
X181000D01*
Y251700D01*
D02*
G37*
G36*
X218300Y222400D02*
X213300Y215800D01*
X206500Y218900D01*
X213500Y224000D01*
X218300Y222400D01*
D02*
G37*
G36*
X255100Y201000D02*
X253500Y197700D01*
X249700D01*
X248300Y201100D01*
X255100Y201000D01*
D02*
G37*
G36*
X258980Y221011D02*
X256911Y218137D01*
X250177D01*
X248200Y219000D01*
X254628Y223285D01*
X258980Y221011D01*
D02*
G37*
D10*
X153600Y233900D02*
X155600D01*
X154600Y232900D02*
Y234900D01*
D12*
X130000Y140000D02*
Y270000D01*
Y140000D02*
X300000D01*
Y270000D01*
X130000D02*
X300000D01*
X167784Y191803D02*
Y202197D01*
X145816D02*
X167784D01*
X145816Y191803D02*
Y202197D01*
Y191803D02*
X167784D01*
X275697Y199416D02*
Y221384D01*
X265303Y199416D02*
X275697D01*
X265303D02*
Y221384D01*
X275697D01*
X188703Y223584D02*
X199097D01*
X188703Y201616D02*
Y223584D01*
Y201616D02*
X199097D01*
Y223584D01*
X219916Y172903D02*
Y183297D01*
Y172903D02*
X241884D01*
Y183297D01*
X219916D02*
X241884D01*
X266203Y173284D02*
X276597D01*
X266203Y151316D02*
Y173284D01*
Y151316D02*
X276597D01*
Y173284D01*
X219916Y246397D02*
X241884D01*
Y236003D02*
Y246397D01*
X219916Y236003D02*
X241884D01*
X219916D02*
Y246397D01*
X168178Y191409D02*
Y202591D01*
X145422D02*
X168178D01*
X145422Y191409D02*
Y202591D01*
Y191409D02*
X168178D01*
X276091Y199022D02*
Y221778D01*
X264910Y199022D02*
X276091D01*
X264910D02*
Y221778D01*
X276091D01*
X188309Y223978D02*
X199491D01*
X188309Y201222D02*
Y223978D01*
Y201222D02*
X199491D01*
Y223978D01*
X219522Y172509D02*
Y183691D01*
Y172509D02*
X242278D01*
Y183691D01*
X219522D02*
X242278D01*
X265809Y173678D02*
X276991D01*
X265809Y150922D02*
Y173678D01*
Y150922D02*
X276991D01*
Y173678D01*
X219522Y246791D02*
X242278D01*
Y235610D02*
Y246791D01*
X219522Y235610D02*
X242278D01*
X219522D02*
Y246791D01*
D14*
X247565Y223550D02*
X244233Y220218D01*
Y223550D02*
X247565Y220218D01*
X245899Y223550D02*
Y220218D01*
X244233Y221884D02*
X247565D01*
D15*
X155400Y225400D02*
G03*
X155400Y225400I-800J0D01*
G01*
X249900Y211900D02*
G03*
X249900Y209500I0J-1200D01*
G01*
D16*
X143850Y223400D02*
X161950D01*
X143850D02*
Y264400D01*
X161950D01*
Y223400D02*
Y264400D01*
X184800Y236492D02*
X194600D01*
X184800Y252192D02*
X194600D01*
Y236492D02*
Y252192D01*
X184800Y236492D02*
Y252192D01*
X198000Y236392D02*
X207800D01*
X198000Y252093D02*
X207800D01*
Y236392D02*
Y252093D01*
X198000Y236392D02*
Y252093D01*
X144607Y205800D02*
Y215600D01*
X160308Y205800D02*
Y215600D01*
X144607Y205800D02*
X160308D01*
X144607Y215600D02*
X160308D01*
X211900Y223300D02*
X249900D01*
Y198100D02*
Y223300D01*
X211900Y198100D02*
X249900D01*
X211900D02*
Y223300D01*
X247500Y189100D02*
Y198100D01*
X244300Y189100D02*
X247500D01*
X244300D02*
Y198100D01*
X247500D01*
X237500Y189100D02*
Y198100D01*
X234300Y189100D02*
X237500D01*
X234300D02*
Y198100D01*
X237500D01*
X227500Y189100D02*
Y198100D01*
X224300Y189100D02*
X227500D01*
X224300D02*
Y198100D01*
X227500D01*
X217500Y189100D02*
Y198100D01*
X214300Y189100D02*
X217500D01*
X214300D02*
Y198100D01*
X217500D01*
X214300Y223300D02*
Y232300D01*
X217500D01*
Y223300D02*
Y232300D01*
X214300Y223300D02*
X217500D01*
X224300D02*
Y232300D01*
X227500D01*
Y223300D02*
Y232300D01*
X224300Y223300D02*
X227500D01*
X234300D02*
Y232300D01*
X237500D01*
Y223300D02*
Y232300D01*
X234300Y223300D02*
X237500D01*
X244300D02*
Y232300D01*
X247500D01*
Y223300D02*
Y232300D01*
X244300Y223300D02*
X247500D01*
X247450Y157600D02*
X259950D01*
X247450D02*
Y177600D01*
X259950D01*
Y157600D02*
Y177600D01*
D17*
X189700Y254185D02*
D03*
Y234500D02*
D03*
X202900Y254085D02*
D03*
Y234400D02*
D03*
X162300Y210700D02*
D03*
X142615D02*
D03*
X253700Y177600D02*
D03*
D18*
X151800Y197000D02*
D03*
X270500Y205400D02*
D03*
X193900Y207600D02*
D03*
X235900Y178100D02*
D03*
X271400Y157300D02*
D03*
X235900Y241200D02*
D03*
D19*
X161800Y197000D02*
D03*
X225900Y178100D02*
D03*
Y241200D02*
D03*
D20*
X245900Y190700D02*
D03*
X235900D02*
D03*
X225900D02*
D03*
X215900D02*
D03*
Y230700D02*
D03*
X225900D02*
D03*
X235900D02*
D03*
X245900D02*
D03*
D21*
X270500Y215400D02*
D03*
X193900Y217600D02*
D03*
X271400Y167300D02*
D03*
D22*
X253700Y157600D02*
D03*
D23*
X174400Y207800D02*
Y254000D01*
Y207800D02*
X184800Y197400D01*
X205200D01*
X154600Y253900D02*
X174400D01*
Y254000D02*
X188000D01*
X188183Y254285D02*
X188568Y253900D01*
X188000Y254285D02*
X188183D01*
X188568Y253900D02*
X202900D01*
X238800D01*
X154600Y218400D02*
Y233900D01*
Y218400D02*
X162300Y210700D01*
Y210517D02*
Y210700D01*
X161800Y197000D02*
Y210017D01*
X162300Y210517D01*
X238800Y253900D02*
X245900Y246800D01*
Y230700D02*
Y246800D01*
X205200Y197400D02*
X209200Y201400D01*
X253700Y157300D02*
X278700D01*
X260592Y226200D02*
X277000D01*
X253396Y219004D02*
X260592Y226200D01*
X215809Y230609D02*
X215900Y230700D01*
X230500Y157300D02*
X253700D01*
X264000Y167300D02*
X271400D01*
X245900Y185400D02*
X264000Y167300D01*
X245900Y185400D02*
Y190829D01*
X287200Y165800D02*
Y216000D01*
X278700Y157300D02*
X287200Y165800D01*
X277000Y226200D02*
X287200Y216000D01*
X215700Y172100D02*
X230500Y157300D01*
X235900Y230700D02*
Y241200D01*
X225900Y230700D02*
Y241000D01*
X235900Y178100D02*
Y190700D01*
X225900Y178100D02*
Y190700D01*
Y178100D02*
X225979Y178179D01*
X215700Y172100D02*
Y179786D01*
X215900Y179986D01*
Y190700D01*
X210900Y218600D02*
X215809Y223509D01*
Y230609D01*
X251200Y196129D02*
Y201838D01*
X245900Y190829D02*
X251200Y196129D01*
D24*
X154600Y253900D02*
D03*
Y243900D02*
D03*
D25*
Y233900D02*
D03*
D26*
X209834Y202600D02*
D03*
Y207600D02*
D03*
Y212600D02*
D03*
Y217600D02*
D03*
X251566D02*
D03*
Y212600D02*
D03*
Y207600D02*
D03*
Y202600D02*
D03*
D27*
X193900Y217600D02*
X198900Y212600D01*
X209834D01*
X209784Y207600D02*
X209809Y207625D01*
X193900Y207600D02*
X209784D01*
X209809Y207625D02*
X209834Y207600D01*
X264620Y205980D02*
X269920D01*
X270500Y205400D01*
X263000Y207600D02*
X264620Y205980D01*
X251566Y207600D02*
X263000D01*
X265400Y215300D02*
X270400D01*
X270500Y215400D01*
X262700Y212600D02*
X265400Y215300D01*
X251566Y212600D02*
X262700D01*
M02*
