G04*
G04 #@! TF.GenerationSoftware,Altium Limited,Altium Designer,21.0.8 (223)*
G04*
G04 Layer_Color=65535*
%FSLAX25Y25*%
%MOIN*%
G70*
G04*
G04 #@! TF.SameCoordinates,E7718C12-BC85-45C8-BBF6-CE0E0CA18016*
G04*
G04*
G04 #@! TF.FilePolarity,Positive*
G04*
G01*
G75*
%ADD10C,0.00600*%
%ADD11C,0.00984*%
%ADD12C,0.00787*%
%ADD13C,0.01000*%
%ADD14C,0.00300*%
%ADD15C,0.00000*%
%ADD16C,0.00100*%
D10*
X155400Y215900D02*
G03*
X155400Y215900I-800J0D01*
G01*
X143350Y222900D02*
X162450D01*
X143350D02*
Y264900D01*
X162450D01*
Y222900D02*
Y264900D01*
X193422Y235993D02*
X195100D01*
X184300D02*
X185978D01*
X184300Y252693D02*
X185978D01*
X195100Y235993D02*
Y252693D01*
X184300Y235993D02*
Y252693D01*
X193422D02*
X195100D01*
X206622Y235893D02*
X208300D01*
X197500D02*
X199178D01*
X197500Y252592D02*
X199178D01*
X208300Y235893D02*
Y252592D01*
X197500Y235893D02*
Y252592D01*
X206622D02*
X208300D01*
X144107Y205300D02*
Y206978D01*
Y214422D02*
Y216100D01*
X160808Y214422D02*
Y216100D01*
X144107Y205300D02*
X160808D01*
X144107Y216100D02*
X160808D01*
Y205300D02*
Y206978D01*
X211400Y223800D02*
X250400D01*
Y197600D02*
Y223800D01*
X211400Y197600D02*
X250400D01*
X211400D02*
Y223800D01*
X257710Y157100D02*
X260450D01*
X246950D02*
X249690D01*
X246950D02*
Y178100D01*
X257679D02*
X260450D01*
Y157100D02*
Y178100D01*
X246950D02*
X249721D01*
X153600Y233900D02*
X155600D01*
X154600Y232900D02*
Y234900D01*
D11*
X170776Y197000D02*
G03*
X170776Y197000I-492J0D01*
G01*
X270992Y223884D02*
G03*
X270992Y223884I-492J0D01*
G01*
X194392Y226084D02*
G03*
X194392Y226084I-492J0D01*
G01*
X217908Y178100D02*
G03*
X217908Y178100I-492J0D01*
G01*
X271892Y175784D02*
G03*
X271892Y175784I-492J0D01*
G01*
X217908Y241200D02*
G03*
X217908Y241200I-492J0D01*
G01*
D12*
X167784Y191803D02*
Y202197D01*
X145816D02*
X167784D01*
X145816Y191803D02*
Y202197D01*
Y191803D02*
X167784D01*
X275697Y199416D02*
Y221384D01*
X265303Y199416D02*
X275697D01*
X265303D02*
Y221384D01*
X275697D01*
X188703Y223584D02*
X199097D01*
X188703Y201616D02*
Y223584D01*
Y201616D02*
X199097D01*
Y223584D01*
X219916Y172903D02*
Y183297D01*
Y172903D02*
X241884D01*
Y183297D01*
X219916D02*
X241884D01*
X266203Y173284D02*
X276597D01*
X266203Y151316D02*
Y173284D01*
Y151316D02*
X276597D01*
Y173284D01*
X219916Y246397D02*
X241884D01*
Y236003D02*
Y246397D01*
X219916Y236003D02*
X241884D01*
X219916D02*
Y246397D01*
X136411Y179787D02*
X133787D01*
X136411Y182411D01*
Y183067D01*
X135755Y183723D01*
X134443D01*
X133787Y183067D01*
X137723D02*
X138379Y183723D01*
X139691D01*
X140347Y183067D01*
Y180443D01*
X139691Y179787D01*
X138379D01*
X137723Y180443D01*
Y183067D01*
X144283Y179787D02*
X141659D01*
X144283Y182411D01*
Y183067D01*
X143627Y183723D01*
X142315D01*
X141659Y183067D01*
X148218Y183723D02*
X145595D01*
Y181755D01*
X146906Y182411D01*
X147563D01*
X148218Y181755D01*
Y180443D01*
X147563Y179787D01*
X146251D01*
X145595Y180443D01*
X149530Y179787D02*
X152154Y182411D01*
X153466Y183067D02*
X154122Y183723D01*
X155434D01*
X156090Y183067D01*
Y180443D01*
X155434Y179787D01*
X154122D01*
X153466Y180443D01*
Y183067D01*
X160026Y183723D02*
X158714Y183067D01*
X157402Y181755D01*
Y180443D01*
X158058Y179787D01*
X159370D01*
X160026Y180443D01*
Y181099D01*
X159370Y181755D01*
X157402D01*
X161338Y179787D02*
X163961Y182411D01*
X165273Y179787D02*
X166585D01*
X165929D01*
Y183723D01*
X165273Y183067D01*
X168553D02*
X169209Y183723D01*
X170521D01*
X171177Y183067D01*
Y182411D01*
X170521Y181755D01*
X171177Y181099D01*
Y180443D01*
X170521Y179787D01*
X169209D01*
X168553Y180443D01*
Y181099D01*
X169209Y181755D01*
X168553Y182411D01*
Y183067D01*
X169209Y181755D02*
X170521D01*
X176425Y183723D02*
X179048D01*
Y183067D01*
X176425Y180443D01*
Y179787D01*
X180360Y183067D02*
X181016Y183723D01*
X182328D01*
X182984Y183067D01*
Y182411D01*
X182328Y181755D01*
X182984Y181099D01*
Y180443D01*
X182328Y179787D01*
X181016D01*
X180360Y180443D01*
Y181099D01*
X181016Y181755D01*
X180360Y182411D01*
Y183067D01*
X181016Y181755D02*
X182328D01*
X184296Y183067D02*
X184952Y183723D01*
X186264D01*
X186920Y183067D01*
Y182411D01*
X186264Y181755D01*
X185608D01*
X186264D01*
X186920Y181099D01*
Y180443D01*
X186264Y179787D01*
X184952D01*
X184296Y180443D01*
X188232Y183067D02*
X188888Y183723D01*
X190200D01*
X190856Y183067D01*
Y180443D01*
X190200Y179787D01*
X188888D01*
X188232Y180443D01*
Y183067D01*
X192167Y179787D02*
X194791Y182411D01*
X196103Y183723D02*
X198727D01*
Y183067D01*
X196103Y180443D01*
Y179787D01*
X200039Y180443D02*
X200695Y179787D01*
X202007D01*
X202663Y180443D01*
Y183067D01*
X202007Y183723D01*
X200695D01*
X200039Y183067D01*
Y182411D01*
X200695Y181755D01*
X202663D01*
X203975Y183067D02*
X204631Y183723D01*
X205943D01*
X206599Y183067D01*
Y182411D01*
X205943Y181755D01*
X205287D01*
X205943D01*
X206599Y181099D01*
Y180443D01*
X205943Y179787D01*
X204631D01*
X203975Y180443D01*
X207910Y183067D02*
X208566Y183723D01*
X209878D01*
X210534Y183067D01*
Y180443D01*
X209878Y179787D01*
X208566D01*
X207910Y180443D01*
Y183067D01*
X134287Y173199D02*
X135599D01*
X134943D01*
Y175823D01*
X134287D01*
X137567Y173199D02*
X139535D01*
X140191Y173855D01*
X139535Y174511D01*
X138223D01*
X137567Y175167D01*
X138223Y175823D01*
X140191D01*
X142159Y173199D02*
X143471D01*
X144127Y173855D01*
Y175167D01*
X143471Y175823D01*
X142159D01*
X141503Y175167D01*
Y173855D01*
X142159Y173199D01*
X145439D02*
X146751D01*
X146095D01*
Y177135D01*
X145439D01*
X149374Y175823D02*
X150686D01*
X151342Y175167D01*
Y173199D01*
X149374D01*
X148718Y173855D01*
X149374Y174511D01*
X151342D01*
X153310Y176479D02*
Y175823D01*
X152654D01*
X153966D01*
X153310D01*
Y173855D01*
X153966Y173199D01*
X155934D02*
X157246D01*
X156590D01*
Y175823D01*
X155934D01*
X159870Y173199D02*
X161182D01*
X161838Y173855D01*
Y175167D01*
X161182Y175823D01*
X159870D01*
X159214Y175167D01*
Y173855D01*
X159870Y173199D01*
X163149D02*
Y175823D01*
X165117D01*
X165773Y175167D01*
Y173199D01*
X171677Y175823D02*
X172989D01*
X173645Y175167D01*
Y173199D01*
X171677D01*
X171021Y173855D01*
X171677Y174511D01*
X173645D01*
X174957Y173199D02*
Y175823D01*
X175613D01*
X176269Y175167D01*
Y173199D01*
Y175167D01*
X176925Y175823D01*
X177580Y175167D01*
Y173199D01*
X178892Y171887D02*
Y175823D01*
X180860D01*
X181516Y175167D01*
Y173855D01*
X180860Y173199D01*
X178892D01*
X182828D02*
X184140D01*
X183484D01*
Y177135D01*
X182828D01*
X186108Y173199D02*
X187420D01*
X186764D01*
Y175823D01*
X186108D01*
X190044Y173199D02*
Y176479D01*
Y175167D01*
X189388D01*
X190700D01*
X190044D01*
Y176479D01*
X190700Y177135D01*
X192667Y173199D02*
X193979D01*
X193324D01*
Y175823D01*
X192667D01*
X197915Y173199D02*
X196603D01*
X195947Y173855D01*
Y175167D01*
X196603Y175823D01*
X197915D01*
X198571Y175167D01*
Y174511D01*
X195947D01*
X199883Y175823D02*
Y173199D01*
Y174511D01*
X200539Y175167D01*
X201195Y175823D01*
X201851D01*
X130000Y140000D02*
Y270000D01*
Y140000D02*
X300000D01*
Y270000D01*
X130000D02*
X300000D01*
X167784Y191803D02*
Y202197D01*
X145816D02*
X167784D01*
X145816Y191803D02*
Y202197D01*
Y191803D02*
X167784D01*
X275697Y199416D02*
Y221384D01*
X265303Y199416D02*
X275697D01*
X265303D02*
Y221384D01*
X275697D01*
X188703Y223584D02*
X199097D01*
X188703Y201616D02*
Y223584D01*
Y201616D02*
X199097D01*
Y223584D01*
X219916Y172903D02*
Y183297D01*
Y172903D02*
X241884D01*
Y183297D01*
X219916D02*
X241884D01*
X266203Y173284D02*
X276597D01*
X266203Y151316D02*
Y173284D01*
Y151316D02*
X276597D01*
Y173284D01*
X219916Y246397D02*
X241884D01*
Y236003D02*
Y246397D01*
X219916Y236003D02*
X241884D01*
X219916D02*
Y246397D01*
X168178Y191409D02*
Y202591D01*
X145422D02*
X168178D01*
X145422Y191409D02*
Y202591D01*
Y191409D02*
X168178D01*
X276091Y199022D02*
Y221778D01*
X264910Y199022D02*
X276091D01*
X264910D02*
Y221778D01*
X276091D01*
X188309Y223978D02*
X199491D01*
X188309Y201222D02*
Y223978D01*
Y201222D02*
X199491D01*
Y223978D01*
X219522Y172509D02*
Y183691D01*
Y172509D02*
X242278D01*
Y183691D01*
X219522D02*
X242278D01*
X265809Y173678D02*
X276991D01*
X265809Y150922D02*
Y173678D01*
Y150922D02*
X276991D01*
Y173678D01*
X219522Y246791D02*
X242278D01*
Y235610D02*
Y246791D01*
X219522Y235610D02*
X242278D01*
X219522D02*
Y246791D01*
D13*
X137200Y167198D02*
Y163199D01*
X139199Y161200D01*
X141199Y163199D01*
Y167198D01*
X143198Y161200D02*
X145197D01*
X144198D01*
Y167198D01*
X143198Y166198D01*
X148196Y165199D02*
X149196D01*
Y164199D01*
X148196D01*
Y165199D01*
Y162200D02*
X149196D01*
Y161200D01*
X148196D01*
Y162200D01*
X162192Y161200D02*
Y167198D01*
X159193Y164199D01*
X163192D01*
X165191Y161200D02*
Y162200D01*
X166191D01*
Y161200D01*
X165191D01*
X174188Y167198D02*
X170189D01*
Y164199D01*
X172189Y165199D01*
X173188D01*
X174188Y164199D01*
Y162200D01*
X173188Y161200D01*
X171189D01*
X170189Y162200D01*
X176187Y164199D02*
X180186D01*
X186184Y167198D02*
X182185D01*
Y164199D01*
X184185Y165199D01*
X185185D01*
X186184Y164199D01*
Y162200D01*
X185185Y161200D01*
X183185D01*
X182185Y162200D01*
X188183Y161200D02*
Y162200D01*
X189183D01*
Y161200D01*
X188183D01*
X197181Y167198D02*
X193182D01*
Y164199D01*
X195181Y165199D01*
X196181D01*
X197181Y164199D01*
Y162200D01*
X196181Y161200D01*
X194182D01*
X193182Y162200D01*
X199180Y167198D02*
Y163199D01*
X201179Y161200D01*
X203179Y163199D01*
Y167198D01*
X136700Y156598D02*
Y152599D01*
X138699Y150600D01*
X140699Y152599D01*
Y156598D01*
X146697Y150600D02*
X142698D01*
X146697Y154599D01*
Y155598D01*
X145697Y156598D01*
X143698D01*
X142698Y155598D01*
X148696Y154599D02*
X149696D01*
Y153599D01*
X148696D01*
Y154599D01*
Y151600D02*
X149696D01*
Y150600D01*
X148696D01*
Y151600D01*
X159693Y155598D02*
X160692Y156598D01*
X162692D01*
X163691Y155598D01*
Y154599D01*
X162692Y153599D01*
X161692D01*
X162692D01*
X163691Y152599D01*
Y151600D01*
X162692Y150600D01*
X160692D01*
X159693Y151600D01*
X165691Y150600D02*
Y151600D01*
X166690D01*
Y150600D01*
X165691D01*
X170689Y155598D02*
X171689Y156598D01*
X173688D01*
X174688Y155598D01*
Y151600D01*
X173688Y150600D01*
X171689D01*
X170689Y151600D01*
Y155598D01*
X176687Y153599D02*
X180686D01*
X186684Y156598D02*
X182685D01*
Y153599D01*
X184685Y154599D01*
X185684D01*
X186684Y153599D01*
Y151600D01*
X185684Y150600D01*
X183685D01*
X182685Y151600D01*
X188683Y150600D02*
Y151600D01*
X189683D01*
Y150600D01*
X188683D01*
X197680Y156598D02*
X193682D01*
Y153599D01*
X195681Y154599D01*
X196681D01*
X197680Y153599D01*
Y151600D01*
X196681Y150600D01*
X194681D01*
X193682Y151600D01*
X199680Y156598D02*
Y152599D01*
X201679Y150600D01*
X203678Y152599D01*
Y156598D01*
X221100Y154000D02*
Y159998D01*
X223099Y157999D01*
X225099Y159998D01*
Y154000D01*
X231097Y158998D02*
X230097Y159998D01*
X228098D01*
X227098Y158998D01*
Y155000D01*
X228098Y154000D01*
X230097D01*
X231097Y155000D01*
X233096Y159998D02*
Y154000D01*
X237095D01*
X239094Y159998D02*
Y154000D01*
Y155999D01*
X243093Y159998D01*
X240094Y156999D01*
X243093Y154000D01*
X214100Y163300D02*
Y169298D01*
X216099Y167299D01*
X218099Y169298D01*
Y163300D01*
X220098Y169298D02*
Y163300D01*
X223097D01*
X224097Y164300D01*
Y168298D01*
X223097Y169298D01*
X220098D01*
X226096Y163300D02*
Y167299D01*
X228096Y169298D01*
X230095Y167299D01*
Y163300D01*
Y166299D01*
X226096D01*
X232094Y169298D02*
X236093D01*
X234093D01*
Y163300D01*
X266400Y223600D02*
Y229598D01*
X268399Y227599D01*
X270399Y229598D01*
Y223600D01*
X272398Y229598D02*
Y223600D01*
X275397D01*
X276397Y224600D01*
Y228598D01*
X275397Y229598D01*
X272398D01*
X278396Y223600D02*
Y227599D01*
X280396Y229598D01*
X282395Y227599D01*
Y223600D01*
Y226599D01*
X278396D01*
X284394Y229598D02*
X288393D01*
X286393D01*
Y223600D01*
X265700Y189600D02*
Y195598D01*
X267699Y193599D01*
X269699Y195598D01*
Y189600D01*
X275697Y194598D02*
X274697Y195598D01*
X272698D01*
X271698Y194598D01*
Y190600D01*
X272698Y189600D01*
X274697D01*
X275697Y190600D01*
X277696Y195598D02*
Y189600D01*
X281695D01*
X283694Y195598D02*
Y189600D01*
Y191599D01*
X287693Y195598D01*
X284694Y192599D01*
X287693Y189600D01*
X192700Y197699D02*
X190701D01*
X191701D01*
Y192701D01*
X190701Y191701D01*
X189701D01*
X188702Y192701D01*
X198698Y197699D02*
X194700D01*
Y194700D01*
X196699Y195700D01*
X197699D01*
X198698Y194700D01*
Y192701D01*
X197699Y191701D01*
X195699D01*
X194700Y192701D01*
X189600Y263399D02*
X188601Y264399D01*
X186601D01*
X185602Y263399D01*
Y259401D01*
X186601Y258401D01*
X188601D01*
X189600Y259401D01*
X191600Y263399D02*
X192599Y264399D01*
X194599D01*
X195598Y263399D01*
Y262400D01*
X194599Y261400D01*
X193599D01*
X194599D01*
X195598Y260400D01*
Y259401D01*
X194599Y258401D01*
X192599D01*
X191600Y259401D01*
X252702Y240299D02*
Y235301D01*
X253701Y234301D01*
X255701D01*
X256700Y235301D01*
Y240299D01*
X258700Y239299D02*
X259699Y240299D01*
X261699D01*
X262698Y239299D01*
Y238300D01*
X261699Y237300D01*
X260699D01*
X261699D01*
X262698Y236300D01*
Y235301D01*
X261699Y234301D01*
X259699D01*
X258700Y235301D01*
X252700Y150799D02*
X251701Y151799D01*
X249701D01*
X248702Y150799D01*
Y146801D01*
X249701Y145801D01*
X251701D01*
X252700Y146801D01*
X257699Y145801D02*
Y151799D01*
X254700Y148800D01*
X258698D01*
X133101Y258599D02*
Y253601D01*
X134101Y252601D01*
X136100D01*
X137100Y253601D01*
Y258599D01*
X139099Y252601D02*
X141099D01*
X140099D01*
Y258599D01*
X139099Y257599D01*
X229800Y255899D02*
X227801D01*
X228801D01*
Y250901D01*
X227801Y249901D01*
X226801D01*
X225802Y250901D01*
X231800Y254899D02*
X232799Y255899D01*
X234799D01*
X235798Y254899D01*
Y253900D01*
X234799Y252900D01*
X233799D01*
X234799D01*
X235798Y251900D01*
Y250901D01*
X234799Y249901D01*
X232799D01*
X231800Y250901D01*
X279902Y157799D02*
Y153800D01*
X281901Y151801D01*
X283900Y153800D01*
Y157799D01*
X289898Y151801D02*
X285900D01*
X289898Y155800D01*
Y156799D01*
X288899Y157799D01*
X286899D01*
X285900Y156799D01*
X173601Y199599D02*
Y195600D01*
X175601Y193601D01*
X177600Y195600D01*
Y199599D01*
X179599Y193601D02*
X181599D01*
X180599D01*
Y199599D01*
X179599Y198599D01*
X203500Y263599D02*
X202501Y264599D01*
X200501D01*
X199502Y263599D01*
Y259601D01*
X200501Y258601D01*
X202501D01*
X203500Y259601D01*
X209498Y258601D02*
X205500D01*
X209498Y262600D01*
Y263599D01*
X208499Y264599D01*
X206499D01*
X205500Y263599D01*
X173815Y212799D02*
X172815Y213799D01*
X170816D01*
X169816Y212799D01*
Y208801D01*
X170816Y207801D01*
X172815D01*
X173815Y208801D01*
X175814Y207801D02*
X177814D01*
X176814D01*
Y213799D01*
X175814Y212799D01*
D14*
X253165Y231950D02*
X249833Y228618D01*
Y231950D02*
X253165Y228618D01*
X251499Y231950D02*
Y228618D01*
X249833Y230284D02*
X253165D01*
X247565Y223550D02*
X244233Y220218D01*
Y223550D02*
X247565Y220218D01*
X245899Y223550D02*
Y220218D01*
X244233Y221884D02*
X247565D01*
D15*
X155400Y225400D02*
G03*
X155400Y225400I-800J0D01*
G01*
X249900Y211900D02*
G03*
X249900Y209500I0J-1200D01*
G01*
D16*
X143850Y223400D02*
X161950D01*
X143850D02*
Y264400D01*
X161950D01*
Y223400D02*
Y264400D01*
X184800Y236492D02*
X194600D01*
X184800Y252192D02*
X194600D01*
Y236492D02*
Y252192D01*
X184800Y236492D02*
Y252192D01*
X198000Y236392D02*
X207800D01*
X198000Y252093D02*
X207800D01*
Y236392D02*
Y252093D01*
X198000Y236392D02*
Y252093D01*
X144607Y205800D02*
Y215600D01*
X160308Y205800D02*
Y215600D01*
X144607Y205800D02*
X160308D01*
X144607Y215600D02*
X160308D01*
X211900Y223300D02*
X249900D01*
Y198100D02*
Y223300D01*
X211900Y198100D02*
X249900D01*
X211900D02*
Y223300D01*
X247500Y189100D02*
Y198100D01*
X244300Y189100D02*
X247500D01*
X244300D02*
Y198100D01*
X247500D01*
X237500Y189100D02*
Y198100D01*
X234300Y189100D02*
X237500D01*
X234300D02*
Y198100D01*
X237500D01*
X227500Y189100D02*
Y198100D01*
X224300Y189100D02*
X227500D01*
X224300D02*
Y198100D01*
X227500D01*
X217500Y189100D02*
Y198100D01*
X214300Y189100D02*
X217500D01*
X214300D02*
Y198100D01*
X217500D01*
X214300Y223300D02*
Y232300D01*
X217500D01*
Y223300D02*
Y232300D01*
X214300Y223300D02*
X217500D01*
X224300D02*
Y232300D01*
X227500D01*
Y223300D02*
Y232300D01*
X224300Y223300D02*
X227500D01*
X234300D02*
Y232300D01*
X237500D01*
Y223300D02*
Y232300D01*
X234300Y223300D02*
X237500D01*
X244300D02*
Y232300D01*
X247500D01*
Y223300D02*
Y232300D01*
X244300Y223300D02*
X247500D01*
X247450Y157600D02*
X259950D01*
X247450D02*
Y177600D01*
X259950D01*
Y157600D02*
Y177600D01*
M02*
